# xmcd CD database file
#
# Track frame offsets:
#	150
#	16943
#	34517
#	49834
#
# Disc length: 1074 seconds
#
# Revision: 1
# Processed by: cddbd v1.5.2PL0 Copyright (c) Steve Scherf et al.
# Submitted via: CDex 1.70beta3
#
DISCID=25043004
DTITLE=Hue and Cry - All true man
DYEAR=1996
DGENRE=Jazz
TTITLE0=All true man (Edit)
TTITLE1=Finally (Edit)
TTITLE2=Free like you (Edit)
TTITLE3=Iron cage (Edit)
EXTD=YEAR: 1996
EXTT0=
EXTT1=
EXTT2=
EXTT3=
PLAYORDER=
